Coordinates
version=1
nRows=10
nColumns=27
inDegrees=yes

Units are S.I. units (second, meters, Newtons, ...)
If the header above contains a line with 'inDegrees', this indicates whether rotational values are in degrees (yes) or radians (no).

endheader
time	pelvis_rotation	pelvis_tilt	pelvis_list	pelvis_tx	pelvis_ty	pelvis_tz	hip_flexion_r	hip_adduction_r	hip_rotation_r	knee_angle_r	knee_rotation_r	knee_adduction_r	knee_angle_r_beta	ankle_angle_r	subtalar_angle_r	mtp_angle_r	hip_flexion_l	hip_adduction_l	hip_rotation_l	knee_angle_l	knee_rotation_l	knee_adduction_l	knee_angle_l_beta	ankle_angle_l	subtalar_angle_l	mtp_angle_l
      4.26000000	     11.63997118	    -44.56943447	      6.03944798	     -0.09007197	      0.56484500	     -1.17539116	    124.78009323	    -45.10765474	     10.25706000	     91.30331710	      0.00000000	      9.51325447	      1.59354350	     11.74804390	      0.00000000	      0.00000000	    121.00089942	    -25.99086991	      4.96908638	     83.69769449	      0.00000000	     -9.87226668	      1.46080035	      3.14326792	      0.00000000	      0.00000000
      4.26500000	     11.03524203	    -44.70574596	      6.03704004	     -0.09084971	      0.56617367	     -1.17528979	    124.73640979	    -44.24949936	     10.32271603	     91.00931948	      0.00000000	      9.11904068	      1.58841227	     11.53319569	      0.00000000	      0.00000000	    120.81624844	    -26.58817096	      4.70412049	     83.45770647	      0.00000000	     -9.75860967	      1.45661176	      3.05948455	      0.00000000	      0.00000000
      4.27000000	     11.66998712	    -44.65683039	      6.11624280	     -0.09116365	      0.56741828	     -1.17588540	    124.48159678	    -45.05957103	      9.97005449	     90.78993982	      0.00000000	      9.48756196	      1.58458338	     11.50503399	      0.00000000	      0.00000000	    120.68017049	    -25.81260674	      4.75580807	     83.24044334	      0.00000000	     -9.86975345	      1.45281981	      3.04686435	      0.00000000	      0.00000000
      4.27500000	     11.06154016	    -44.76932215	      6.08935637	     -0.09188339	      0.56866748	     -1.17576776	    124.40673421	    -44.22058217	     10.01892568	     90.51190944	      0.00000000	      9.08416726	      1.57973083	     11.32842048	      0.00000000	      0.00000000	    120.49413213	    -26.41102760	      4.50734291	     83.01437269	      0.00000000	     -9.75402530	      1.44887413	      2.96683502	      0.00000000	      0.00000000
      4.28000000	     11.65533850	    -44.74523938	      6.18494490	     -0.09220909	      0.56983024	     -1.17633235	    124.21989853	    -44.96295691	      9.71830770	     90.31400384	      0.00000000	      9.46200806	      1.57627673	     11.33178203	      0.00000000	      0.00000000	    120.38153519	    -25.70026453	      4.53426133	     82.80975949	      0.00000000	     -9.86711827	      1.44530296	      2.94438360	      0.00000000	      0.00000000
      4.28500000	     11.65950728	    -44.77655482	      6.20930944	     -0.09271531	      0.57103672	     -1.17654183	    124.05838060	    -44.93672814	      9.56699062	     90.07231818	      0.00000000	      9.44927152	      1.57205852	     11.24250040	      0.00000000	      0.00000000	    120.22605737	    -25.63108649	      4.43460462	     82.59178598	      0.00000000	     -9.86589641	      1.44149860	      2.89180014	      0.00000000	      0.00000000
      4.29000000	     11.66534170	    -44.81522504	      6.23420030	     -0.09323258	      0.57222617	     -1.17673677	    123.90935478	    -44.90462410	      9.42503013	     89.83567238	      0.00000000	      9.43931873	      1.56792827	     11.15807361	      0.00000000	      0.00000000	    120.08209230	    -25.55943697	      4.33991645	     82.37410410	      0.00000000	     -9.86468909	      1.43769933	      2.82814307	      0.00000000	      0.00000000
      4.29500000	     11.67743248	    -44.83800243	      6.24835173	     -0.09371105	      0.57339565	     -1.17692096	    123.73412753	    -44.88947810	      9.26494481	     89.60249888	      0.00000000	      9.42458286	      1.56385862	     11.07876599	      0.00000000	      0.00000000	    119.92741261	    -25.47860854	      4.25722633	     82.15905393	      0.00000000	     -9.86350057	      1.43394600	      2.79011701	      0.00000000	      0.00000000
      4.30000000	     11.39788916	    -44.83352837	      6.14437639	     -0.09426858	      0.57462986	     -1.17686433	    123.43348705	    -44.53761803	      9.09386814	     89.32552925	      0.00000000	      9.01586017	      1.55902459	     10.90744892	      0.00000000	      0.00000000	    119.72938705	    -25.65978985	      4.19903071	     81.91872410	      0.00000000	     -9.74169833	      1.42975145	      2.69355653	      0.00000000	      0.00000000
      4.30500000	     11.80849757	    -44.84239227	      6.27563171	     -0.09459999	      0.57567333	     -1.17728910	    123.34218693	    -44.99963440	      8.92180927	     89.15146822	      0.00000000	      9.40447440	      1.55598665	     10.89997958	      0.00000000	      0.00000000	    119.61192935	    -25.20378388	      4.13174592	     81.73122339	      0.00000000	     -9.86118700	      1.42647895	      2.67987769	      0.00000000	      0.00000000
